<svg width="24" height="24" viewBox="0 0 24 24" fill="none" xmlns="http://www.w3.org/2000/svg">
<path d="M14.5499 4.5C14.2499 4.5 14.0499 4.3 14.0499 4V2.5C14.0499 2.2 13.8999 2 13.7999 2H10.1499C10.0999 2 9.8999 2.2 9.8999 2.5V4C9.8999 4.3 9.6999 4.5 9.3999 4.5C9.0999 4.5 8.8999 4.3 8.8999 4V2.5C8.8999 1.65 9.4499 1 10.1499 1H13.7999C14.4999 1 15.0499 1.65 15.0499 2.5V4C15.0499 4.3 14.8499 4.5 14.5499 4.5Z" fill="black"/>
<path d="M21.5 7.5H2.5C1.65 7.5 1 6.85 1 6V5C1 4.15 1.65 3.5 2.5 3.5H21.5C22.35 3.5 23 4.15 23 5V6C23 6.85 22.35 7.5 21.5 7.5ZM2.5 4.5C2.2 4.5 2 4.7 2 5V6C2 6.3 2.2 6.5 2.5 6.5H21.5C21.8 6.5 22 6.3 22 6V5C22 4.7 21.8 4.5 21.5 4.5H2.5Z" fill="black"/>
<path d="M17.7 23H6.3C5 23 3.95 22.05 3.8 20.75L2.5 7.15001C2.5 7.00001 2.55 6.85001 2.65 6.75001C2.75 6.65001 2.9 6.60001 3 6.60001H21C21.15 6.60001 21.3 6.65001 21.35 6.75001C21.4 6.85001 21.5 7.00001 21.5 7.15001L20.2 20.75C20.05 22.05 19 23 17.7 23ZM3.55 7.60001L4.8 20.65C4.9 21.4 5.5 22 6.3 22H17.65C18.45 22 19.05 21.4 19.15 20.65L20.4 7.60001H3.55Z" fill="black"/>
<path d="M12 17C10.45 17 9.20004 15.75 9.20004 14.2V13H14.75V14.25C14.8 15.75 13.55 17 12 17ZM10.2 14V14.25C10.2 15.25 11 16.05 12 16.05C13 16.05 13.8 15.25 13.8 14.25V14H10.2ZM16 11.75C15.9 11.75 15.85 11.75 15.75 11.7L14.35 10.95C14.2 10.85 14.1 10.7 14.1 10.5C14.1 10.3 14.2 10.15 14.35 10.05L15.75 9.3C16 9.15 16.3 9.25 16.45 9.5C16.6 9.75 16.5 10.05 16.25 10.2L15.7 10.5L16.25 10.8C16.5 10.95 16.6 11.25 16.45 11.5C16.35 11.65 16.2 11.75 16 11.75ZM8.00004 11.75C7.80004 11.75 7.65004 11.65 7.55004 11.45C7.45004 11.2 7.55004 10.9 7.80004 10.8L8.40004 10.5L7.80004 10.2C7.55004 10.1 7.45004 9.8 7.55004 9.55C7.65004 9.3 7.95004 9.2 8.20004 9.3L9.70004 10.05C9.85004 10.15 10 10.3 10 10.5C10 10.7 9.90004 10.85 9.70004 10.95L8.20004 11.7C8.15004 11.75 8.05004 11.75 8.00004 11.75Z" fill="black"/>
</svg>
